<svg width="32" height="32" viewBox="0 0 100 100" xmlns="http://www.w3.org/2000/svg">
  <defs>
    <linearGradient id="rimGrad" x1="0%" y1="0%" x2="100%" y2="100%">
      <stop offset="0%" stop-color="#cc2936" />
      <stop offset="50%" stop-color="#d4a843" />
      <stop offset="100%" stop-color="#a07835" />
    </linearGradient>
  </defs>
  <circle cx="50" cy="50" r="48" fill="#0a0a0f" stroke="url(#rimGrad)" stroke-width="4" />
  <circle cx="50" cy="50" r="42" fill="none" stroke="#22222d" stroke-width="1.5" stroke-dasharray="4 3" />
  <text x="50" y="63" text-anchor="middle" font-size="52" font-family="Georgia, serif" font-weight="bold" fill="#18181f" opacity="0.9">$</text>
  <g fill="#e03545" stroke="#9b1c1c" stroke-width="0.8">
    <ellipse cx="50" cy="60" rx="22" ry="14" />
    <ellipse cx="32" cy="46" rx="9" ry="7" />
    <ellipse cx="24" cy="49" rx="5" ry="3.5" />
    <ellipse cx="28" cy="34" rx="2.5" ry="7" transform="rotate(-10 28 34)" />
    <ellipse cx="34" cy="32" rx="2.5" ry="7" transform="rotate(5 34 32)" />
    <circle cx="29" cy="45" r="1.2" fill="#0a0a0f" stroke="none" />
    <rect x="33" y="50" width="8" height="8" rx="3" />
    <path d="M28 68 Q20 65 22 58 Q24 52 28 55" fill="none" stroke="#d4a843" stroke-width="2" stroke-linecap="round" />
    <ellipse cx="68" cy="44" rx="11" ry="10" />
    <ellipse cx="80" cy="42" rx="7" ry="10" opacity="0.85" />
    <path d="M61 50 Q55 60 58 68 Q60 72 64 70" fill="none" stroke="#d4a843" stroke-width="4" stroke-linecap="round" />
    <path d="M62 52 Q57 56 58 62" fill="none" stroke="#93c5fd" stroke-width="2" stroke-linecap="round" />
    <circle cx="71" cy="42" r="1.4" fill="#0a0a0f" stroke="none" />
    <rect x="59" y="50" width="8" height="8" rx="3" />
    <rect x="34" y="70" width="6" height="10" rx="2" />
    <rect x="42" y="72" width="6" height="10" rx="2" />
    <rect x="51" y="72" width="6" height="10" rx="2" />
    <rect x="59" y="70" width="6" height="10" rx="2" />
  </g>
</svg>
